<?xml version="1.0" encoding="UTF-8"?>
<svg xmlns="http://www.w3.org/2000/svg" viewBox="0 0 175.216 175.552">
  <defs>
    <linearGradient id="a" x1="85.915" y1="32.567" x2="86.535" y2="137.092" gradientUnits="userSpaceOnUse">
      <stop offset="0" stop-color="#57d163"/>
      <stop offset="1" stop-color="#23b33a"/>
    </linearGradient>
  </defs>
  <path d="M87.5,0A87.708,87.708,0,0,0,14.4,134.768L4.9,170.552l36.8-9.632A87.727,87.727,0,1,0,87.5,0Z" fill="#fff"/>
  <path d="M87.5,14.336a73.3,73.3,0,0,0-62.195,113.1L19.944,156.32l29.512-7.744a73.313,73.313,0,1,0,38.044-134.24Z" fill="url(#a)"/>
  <path d="M126.3,110.167c-1.8,5.024-10.752,9.632-14.816,9.856-3.808.224-7.68.672-24.416-5.248-20.544-7.232-33.6-26.208-34.656-27.392s-8.4-11.2-8.4-21.392,5.248-15.12,7.168-17.216a7.52,7.52,0,0,1,5.472-2.576c1.344,0,2.688.112,3.808.112,1.232,0,2.688-.112,4.144,3.136,1.456,3.36,5.024,11.6,5.472,12.432a3.2,3.2,0,0,1,.112,3.024,11.717,11.717,0,0,1-1.792,2.576c-.9.9-1.792,2.024-2.576,2.688-.9.784-1.792,1.68-.784,3.36a49.638,49.638,0,0,0,8.96,11.2,43.877,43.877,0,0,0,12.88,8.064c1.68.784,2.688.672,3.7-.336s4.256-5.024,5.36-6.7,2.24-1.456,3.808-.784,9.856,4.704,11.536,5.472,2.8,1.344,3.248,2.024A14.663,14.663,0,0,1,126.3,110.167Z" fill="#fff"/>
</svg>